HIERARCHY
ROOT root
{
	OFFSET 0.000000 0.000000 0.000000
	CHANNELS 6 Xposition Yposition Zposition Zrotation Yrotation Xrotation
	JOINT lhip
	{
		OFFSET 0.058581 -0.082280 -0.017664
		CHANNELS 3 Zrotation Yrotation Xrotation
		JOINT lknee
		{
			OFFSET 0.043451 -0.386469 0.008037
			CHANNELS 3 Zrotation Yrotation Xrotation
			JOINT lankle
			{
				OFFSET -0.014790 -0.426874 -0.037428
				CHANNELS 3 Zrotation Yrotation Xrotation
				JOINT ltoe
				{
					OFFSET 0.041054 -0.060286 0.122042
					CHANNELS 3 Zrotation Yrotation Xrotation
					End Site
					{
						OFFSET 0.000000 0.000000 0.000000
					}
				}
			}
		}
	}
	JOINT rhip
	{
		OFFSET -0.060310 -0.090513 -0.013543
		CHANNELS 3 Zrotation Yrotation Xrotation
		JOINT rknee
		{
			OFFSET -0.043257 -0.383688 -0.004843
			CHANNELS 3 Zrotation Yrotation Xrotation
			JOINT rankle
			{
				OFFSET 0.019056 -0.420046 -0.034562
				CHANNELS 3 Zrotation Yrotation Xrotation
				JOINT rtoe
				{
					OFFSET -0.034840 -0.062106 0.130323
					CHANNELS 3 Zrotation Yrotation Xrotation
					End Site
					{
						OFFSET 0.000000 0.000000 0.000000
					}
				}
			}
		}
	}
	JOINT lowerback
	{
		OFFSET 0.004439 0.124404 -0.038385
		CHANNELS 3 Zrotation Yrotation Xrotation
		JOINT upperback
		{
			OFFSET 0.004488 0.137956 0.026820
			CHANNELS 3 Zrotation Yrotation Xrotation
			JOINT chest
			{
				OFFSET -0.002265 0.056032 0.002855
				CHANNELS 3 Zrotation Yrotation Xrotation
				JOINT lowerneck
				{
					OFFSET -0.013390 0.211636 -0.033468
					CHANNELS 3 Zrotation Yrotation Xrotation
					JOINT upperneck
					{
						OFFSET 0.010113 0.088937 0.050410
						CHANNELS 3 Zrotation Yrotation Xrotation
						End Site
						{
							OFFSET 0.000000 0.000000 0.000000
						}
					}
				}
				JOINT lclavicle
				{
					OFFSET 0.071702 0.114000 -0.018898
					CHANNELS 3 Zrotation Yrotation Xrotation
					JOINT lshoulder
					{
						OFFSET 0.122921 0.045205 -0.019046
						CHANNELS 3 Zrotation Yrotation Xrotation
						JOINT lelbow
						{
							OFFSET 0.255332 -0.015649 -0.022946
							CHANNELS 3 Zrotation Yrotation Xrotation
							JOINT lwrist
							{
								OFFSET 0.265709 0.012698 -0.007375
								CHANNELS 3 Zrotation Yrotation Xrotation
								End Site
								{
									OFFSET 0.000000 0.000000 0.000000
								}
							}
						}
					}
				}
				JOINT rclavicle
				{
					OFFSET -0.082954 0.112472 -0.023707
					CHANNELS 3 Zrotation Yrotation Xrotation
					JOINT rshoulder
					{
						OFFSET -0.113228 0.046853 -0.008472
						CHANNELS 3 Zrotation Yrotation Xrotation
						JOINT relbow
						{
							OFFSET -0.260127 -0.014369 -0.031269
							CHANNELS 3 Zrotation Yrotation Xrotation
							JOINT rwrist
							{
								OFFSET -0.269108 0.006794 -0.006027
								CHANNELS 3 Zrotation Yrotation Xrotation
								End Site
								{
									OFFSET 0.000000 0.000000 0.000000
								}
							}
						}
					}
				}
			}
		}
	}
}
MOTION
Frames: 9
Frame Time: 0.033333
0.092560 1.588936 1.003769 0.187970 2.537058 93.679404 3.237117 3.535910 -6.463827 -4.601421 -1.426404 4.775026 3.949212 8.602390 -9.250883 0.000000 -0.000000 0.000000 -1.870733 -2.322957 -19.735085 3.933366 -3.712075 9.278544 7.417338 -2.091213 1.655886 0.000000 -0.000000 0.000000 -1.355414 1.046674 16.524099 1.397844 -0.494868 -5.151030 2.278229 -1.404745 -0.267356 6.706428 -6.949716 -10.754147 8.458512 -10.819303 2.675424 -26.469309 -6.570760 -0.856492 -51.164077 -15.372454 11.184810 7.620365 -24.787905 1.824064 3.541198 -5.207024 1.363343 21.962721 8.723526 0.364906 46.620227 13.017427 11.891053 -6.872505 24.865576 4.863155 8.101384 0.910788 1.123615 
0.097105 1.591131 1.002906 -0.705955 2.673392 93.401520 3.006188 3.700440 -4.534602 -4.396837 -1.052282 1.614415 3.708848 8.508516 -8.321024 0.000000 -0.000000 0.000000 -2.064144 -2.168690 -18.806145 4.072025 -3.686945 7.405046 7.783088 -1.766206 2.793003 0.000000 -0.000000 0.000000 -1.603584 1.399647 15.405724 1.449005 -0.227815 -3.533782 2.539891 -1.620273 -0.712059 6.323556 -7.949958 -9.495318 8.146620 -11.597516 1.982780 -26.897477 -6.756894 -0.428187 -50.945776 -15.800726 11.099130 7.792897 -25.066827 1.312438 2.788886 -5.195936 1.731887 21.879315 8.711896 0.298288 46.424723 13.763620 11.946728 -6.843381 25.268293 5.220368 9.189225 0.910323 1.959906 
0.101324 1.592565 1.001699 -1.572069 2.848158 93.228181 2.949234 4.373112 -2.710163 -4.369667 -1.003327 -1.401831 3.500475 8.174801 -7.397474 0.000000 -0.000000 0.000000 -2.192047 -2.241022 -18.286313 4.252400 -3.742630 6.197788 8.122258 -1.160468 3.634957 0.000000 -0.000000 0.000000 -1.608660 1.137773 15.266094 1.321529 -0.156138 -3.546646 2.589016 -1.500575 -0.972817 6.058738 -8.911989 -8.505528 7.986689 -12.148657 1.454636 -26.955589 -6.213776 -0.573562 -51.009017 -15.438242 11.052964 7.647715 -25.281168 1.749895 2.561774 -5.013867 2.100587 21.728051 8.615322 0.109501 46.723674 14.055784 12.141110 -6.228668 25.675136 5.870079 9.334415 0.922893 2.118951 
0.107149 1.594674 0.999530 -2.861475 3.208084 92.844783 3.020478 5.320630 -0.333421 -4.361202 -1.016415 -5.074127 3.249817 7.910304 -6.426887 0.000000 -0.000000 0.000000 -2.191029 -1.907366 -18.222364 4.412108 -3.682047 5.881341 8.334958 -0.763781 4.106726 0.000000 -0.000000 0.000000 -1.647649 0.710881 15.067039 1.309843 0.090410 -3.415187 2.647675 -1.512673 -1.007063 6.164055 -9.659141 -8.360503 7.953150 -12.897134 0.751561 -27.248914 -5.665931 -0.887830 -50.606757 -14.989244 10.952621 7.625450 -24.727227 1.302947 2.955482 -5.223942 2.513632 21.823055 8.515189 -0.252906 46.861295 14.360246 12.701875 -5.737575 26.081638 6.375701 8.503290 1.335561 2.859283 
0.109033 1.595429 0.998988 -3.327726 3.356637 92.719269 3.081677 5.625268 0.240644 -4.415199 -0.979738 -5.901228 3.212029 7.885011 -6.183843 0.000000 -0.000000 0.000000 -2.136829 -1.767843 -18.438063 4.399785 -3.620132 6.214825 8.449593 -0.489581 4.249581 0.000000 -0.000000 0.000000 -1.665753 0.557182 15.063424 1.317710 0.164467 -3.415954 2.675881 -1.473860 -0.998208 6.223853 -9.706555 -8.507049 8.102674 -13.004434 0.473267 -27.239422 -5.587690 -0.950674 -50.672791 -14.720197 10.904082 7.883579 -24.459358 1.042069 2.539374 -5.174220 2.488650 21.800862 8.508442 -0.348960 47.025088 14.351160 12.757490 -5.728863 26.115877 6.570079 8.955897 1.236082 2.937677 
0.112769 1.597534 0.998152 -4.050047 3.544035 92.587368 2.888292 5.564091 0.636538 -4.322133 -0.715392 -6.650328 3.330024 8.245118 -5.853834 0.000000 -0.000000 0.000000 -2.077818 -1.116861 -19.228598 4.212512 -3.456059 7.217999 8.486169 -0.743718 4.200705 0.000000 -0.000000 0.000000 -1.922773 0.366027 14.825616 1.488795 0.282920 -3.188891 2.825579 -1.572883 -0.857986 6.558299 -9.913896 -8.750347 8.436129 -12.976010 -0.542978 -27.305611 -5.565219 -0.962726 -50.777119 -14.676082 10.843851 8.438217 -23.181991 0.439082 2.707060 -5.107715 2.730612 21.813507 8.399472 -0.430123 47.233225 14.458132 13.057657 -5.776850 25.963580 6.575200 8.946119 1.287529 2.798829 
0.116272 1.599449 0.997977 -4.487289 3.725499 92.370187 2.706477 5.448248 0.584245 -4.216762 -0.598105 -6.438607 3.385433 8.506150 -5.882030 0.000000 -0.000000 0.000000 -1.929715 -0.420605 -19.818442 3.842643 -3.291683 8.161905 8.298270 -1.246632 4.125898 0.000000 -0.000000 0.000000 -2.214171 0.206937 14.758311 1.730886 0.251276 -2.968385 3.079942 -1.782687 -0.777838 7.026230 -10.545169 -8.436759 8.771053 -12.899074 -1.813848 -27.426990 -5.792775 -0.535543 -50.590967 -14.517255 10.659648 8.862768 -21.981989 -0.162611 3.040299 -4.992471 2.458533 21.544752 8.327617 -0.337825 47.740951 14.369811 13.304257 -5.953206 25.730608 6.706243 8.690258 1.214522 2.253246 
0.119356 1.601380 0.998087 -4.767022 3.801326 92.224061 2.512948 5.580191 0.444243 -4.213764 -0.773763 -6.195750 3.430464 8.710518 -5.934459 0.000000 -0.000000 0.000000 -1.809554 0.157432 -20.399131 3.363945 -3.052891 9.072522 8.251628 -1.703156 3.992524 0.000000 -0.000000 0.000000 -2.404794 -0.281736 15.724296 1.723487 0.046202 -4.037205 3.111022 -1.727333 -0.795214 7.402470 -10.775823 -8.514859 9.220810 -12.943812 -1.878678 -27.080220 -5.513063 -0.579360 -50.528982 -13.974321 10.404653 8.692533 -20.785706 0.010053 3.807435 -5.086556 2.810902 21.299799 8.061984 -0.340288 48.647641 13.851348 13.452350 -5.709130 25.094498 7.003884 8.523758 1.238298 2.030805 
0.122076 1.603929 0.998239 -5.317855 3.915191 92.167865 2.347407 5.827369 0.173756 -4.176263 -0.721000 -5.927173 3.799888 8.954163 -5.889130 0.000000 -0.000000 0.000000 -1.559948 -0.127839 -21.451759 3.156280 -2.508907 10.569288 8.391198 -1.353018 4.237153 0.000000 -0.000000 0.000000 -2.608341 -0.435827 16.190134 1.714762 -0.042088 -4.701929 3.150895 -1.686613 -0.750563 7.885305 -10.974132 -8.295736 9.721556 -13.067546 -1.772347 -26.847963 -5.319431 -0.613588 -50.328335 -13.625373 10.152560 8.497012 -19.836452 0.373650 3.851493 -5.108282 3.150511 21.163725 7.918863 -0.167410 49.185128 13.330938 13.432164 -5.530980 24.238813 7.457489 8.641466 1.346452 2.283316 
